<?xml version="1.0" encoding="UTF-8" standalone="no"?>
<svg width="192px" height="192px" viewBox="0 0 192 192" version="1.1" xmlns="http://www.w3.org/2000/svg" xmlns:xlink="http://www.w3.org/1999/xlink" xmlns:sketch="http://www.bohemiancoding.com/sketch/ns">
    <!-- Generator: Sketch 3.4.3 (16618) - http://www.bohemiancoding.com/sketch -->
    <title>192 - xxxhpdi</title>
    <desc>Created with Sketch.</desc>
    <defs>
        <linearGradient x1="100%" y1="0%" x2="-12.2233073%" y2="111.691284%" id="linearGradient-1">
            <stop stop-color="#252658" offset="0%"></stop>
            <stop stop-color="#52DFDE" offset="100%"></stop>
        </linearGradient>
    </defs>
    <g id="_styleguide" stroke="none" stroke-width="1" fill="none" fill-rule="evenodd" sketch:type="MSPage">
        <g id="192---xxxhpdi" sketch:type="MSArtboardGroup">
            <rect id="Rectangle-39" fill="url(#linearGradient-1)" sketch:type="MSShapeGroup" x="0" y="0" width="192" height="192"></rect>
            <path d="M132,130 C150.001539,130 165,115.001539 165,97 C165,77.9984609 150.001539,63 132,63 C112.998461,63 98,77.9984609 98,97 C98,115.001539 112.998461,130 132,130 L132,130 L132,130 Z M132,127 C114.655315,127 101,113.344685 101,97 C101,79.6553151 114.655315,66 132,66 C148.344685,66 162,79.6553151 162,97 C162,113.344685 148.344685,127 132,127 L132,127 L132,127 Z M34,127 C31.3092656,127 30.1055307,124.950707 32,122 L32,122 L58,69 C59.3868994,66.2611192 61.3060566,66.2510726 63,69 L63,69 L91,122 C92.9129859,125.026993 91.7643233,127 89,127 L34,127 L34,127 L34,127 Z M34,130 L89,130 C94.0700024,130 96.6869715,125.503503 94,121 L66,68 L66,68 C62.6490843,62.738958 57.8469831,62.7641046 55,68 L29,121 L29,121 C26.3186164,125.432537 29.0006385,130 34,130 L34,130 L34,130 Z" id="Shape" fill="#FFFFFF" sketch:type="MSShapeGroup"></path>
        </g>
    </g>
</svg>