<?xml version="1.0" encoding="UTF-8" standalone="no"?>
<svg width="512px" height="512px" viewBox="0 0 512 512" version="1.1" xmlns="http://www.w3.org/2000/svg" xmlns:xlink="http://www.w3.org/1999/xlink" xmlns:sketch="http://www.bohemiancoding.com/sketch/ns">
    <!-- Generator: Sketch 3.4.3 (16618) - http://www.bohemiancoding.com/sketch -->
    <title>512 - Play Store</title>
    <desc>Created with Sketch.</desc>
    <defs>
        <linearGradient x1="100%" y1="0%" x2="-12.2233073%" y2="111.691284%" id="linearGradient-1">
            <stop stop-color="#252658" offset="0%"></stop>
            <stop stop-color="#52DFDE" offset="100%"></stop>
        </linearGradient>
    </defs>
    <g id="_styleguide" stroke="none" stroke-width="1" fill="none" fill-rule="evenodd" sketch:type="MSPage">
        <g id="512---Play-Store" sketch:type="MSArtboardGroup">
            <rect id="Rectangle-39" fill="url(#linearGradient-1)" sketch:type="MSShapeGroup" x="0" y="0" width="513" height="513"></rect>
            <path d="M345.219025,340.190066 C390.408279,340.190066 428.058908,302.539437 428.058908,257.350183 C428.058908,209.650629 390.408279,172 345.219025,172 C297.519471,172 259.868842,209.650629 259.868842,257.350183 C259.868842,302.539437 297.519471,340.190066 345.219025,340.190066 L345.219025,340.190066 L345.219025,340.190066 Z M345.219025,332.659168 C301.678671,332.659168 267.39974,298.380237 267.39974,257.350183 C267.39974,213.809829 301.678671,179.530898 345.219025,179.530898 C386.249079,179.530898 420.52801,213.809829 420.52801,257.350183 C420.52801,298.380237 386.249079,332.659168 345.219025,332.659168 L345.219025,332.659168 L345.219025,332.659168 Z M99.2096742,332.659168 C92.4551248,332.659168 89.4333899,327.514829 94.1890752,320.10767 L94.1890752,320.10767 L159.456862,187.061797 C162.938395,180.186386 167.756054,180.161166 172.00836,187.061797 L172.00836,187.061797 L242.296745,320.10767 C247.098913,327.706329 244.215426,332.659168 237.276146,332.659168 L99.2096742,332.659168 L99.2096742,332.659168 L99.2096742,332.659168 Z M99.2096742,340.190066 L237.276146,340.190066 C250.003371,340.190066 256.572747,328.902513 249.827644,317.597371 L179.539258,184.551497 L179.539258,184.551497 C171.127456,171.344706 159.072744,171.407832 151.925964,184.551497 L86.6581767,317.597371 L86.6581767,317.597371 C79.9271008,328.724366 86.6597794,340.190066 99.2096742,340.190066 L99.2096742,340.190066 L99.2096742,340.190066 Z" id="Shape" fill="#FFFFFF" sketch:type="MSShapeGroup"></path>
        </g>
    </g>
</svg>